<?xml version="1.0" encoding="UTF-8" standalone="no"?>
<!DOCTYPE svg PUBLIC "-//W3C//DTD SVG 1.1//EN" "http://www.w3.org/Graphics/SVG/1.1/DTD/svg11.dtd">
<svg width="100%" height="100%" viewBox="0 0 540 540" version="1.1" xmlns="http://www.w3.org/2000/svg" xmlns:xlink="http://www.w3.org/1999/xlink" xml:space="preserve" xmlns:serif="http://www.serif.com/" style="fill-rule:evenodd;clip-rule:evenodd;stroke-linecap:square;stroke-miterlimit:10;">
    <g id="socket-io.svg" transform="matrix(0.0496,0,0,0.0496,1.42109e-14,2.13163e-14)">
        <g transform="matrix(1,0,0,1,-1250,-1250)">
            <g transform="matrix(2.71848,2.90026e-15,0,3.75627,-761.442,-5844.01)">
                <path d="M740.012,1564.77C987.238,1564.77 1187.95,1709.88 1187.95,1888.62C1187.95,2067.36 987.238,2212.47 740.012,2212.47C492.786,2212.47 292.07,2067.36 292.07,1888.62C292.07,1709.88 492.786,1564.77 740.012,1564.77ZM740.012,1613.35C950.154,1613.35 1120.76,1736.69 1120.76,1888.62C1120.76,2040.55 950.154,2163.89 740.012,2163.89C529.87,2163.89 359.261,2040.55 359.261,1888.62C359.261,1736.69 529.87,1613.35 740.012,1613.35Z" style="fill:rgb(1,1,1);"/>
            </g>
            <path d="M953.486,1188.38C1220.35,970.352 1481.4,744.766 1754.07,533.135C1611.05,752.91 1463.95,969.766 1320.93,1189.53C1198.25,1190.12 1075.59,1190.12 953.486,1188.37L953.486,1188.38ZM1179.07,1309.88C1302.32,1309.88 1425,1309.88 1547.68,1311.63C1279.07,1528.49 1019.19,1755.81 745.928,1966.87C888.955,1747.09 1036.05,1529.66 1179.07,1309.88Z" style="fill:rgb(1,1,1);fill-rule:nonzero;"/>
        </g>
    </g>
    <g id="socket-io.svg1" serif:id="socket-io.svg" transform="matrix(0.0496,0,0,0.0496,540,0)">
        <g transform="matrix(1,0,0,1,-1250,-1250)">
            <g transform="matrix(2.71848,2.90026e-15,0,3.75627,-761.442,-5844.01)">
                <path d="M740.012,1564.77C987.238,1564.77 1187.95,1709.88 1187.95,1888.62C1187.95,2067.36 987.238,2212.47 740.012,2212.47C492.786,2212.47 292.07,2067.36 292.07,1888.62C292.07,1709.88 492.786,1564.77 740.012,1564.77ZM740.012,1613.35C950.154,1613.35 1120.76,1736.69 1120.76,1888.62C1120.76,2040.55 950.154,2163.89 740.012,2163.89C529.87,2163.89 359.261,2040.55 359.261,1888.62C359.261,1736.69 529.87,1613.35 740.012,1613.35Z" style="fill:rgb(1,1,1);"/>
            </g>
            <path d="M953.486,1188.38C1220.35,970.352 1481.4,744.766 1754.07,533.135C1611.05,752.91 1463.95,969.766 1320.93,1189.53C1198.25,1190.12 1075.59,1190.12 953.486,1188.37L953.486,1188.38ZM1179.07,1309.88C1302.32,1309.88 1425,1309.88 1547.68,1311.63C1279.07,1528.49 1019.19,1755.81 745.928,1966.87C888.955,1747.09 1036.05,1529.66 1179.07,1309.88Z" style="fill:rgb(1,1,1);fill-rule:nonzero;"/>
        </g>
    </g>
    <g id="socket-io.svg2" serif:id="socket-io.svg" transform="matrix(0.0496,0,0,0.0496,540,540)">
        <g transform="matrix(1,0,0,1,-1250,-1250)">
            <g transform="matrix(2.71848,2.90026e-15,0,3.75627,-761.442,-5844.01)">
                <path d="M740.012,1564.77C987.238,1564.77 1187.95,1709.88 1187.95,1888.62C1187.95,2067.36 987.238,2212.47 740.012,2212.47C492.786,2212.47 292.07,2067.36 292.07,1888.62C292.07,1709.88 492.786,1564.77 740.012,1564.77ZM740.012,1613.35C950.154,1613.35 1120.76,1736.69 1120.76,1888.62C1120.76,2040.55 950.154,2163.89 740.012,2163.89C529.87,2163.89 359.261,2040.55 359.261,1888.62C359.261,1736.69 529.87,1613.35 740.012,1613.35Z" style="fill:rgb(1,1,1);"/>
            </g>
            <path d="M953.486,1188.38C1220.35,970.352 1481.4,744.766 1754.07,533.135C1611.05,752.91 1463.95,969.766 1320.93,1189.53C1198.25,1190.12 1075.59,1190.12 953.486,1188.37L953.486,1188.38ZM1179.07,1309.88C1302.32,1309.88 1425,1309.88 1547.68,1311.63C1279.07,1528.49 1019.19,1755.81 745.928,1966.87C888.955,1747.09 1036.05,1529.66 1179.07,1309.88Z" style="fill:rgb(1,1,1);fill-rule:nonzero;"/>
        </g>
    </g>
    <g id="socket-io.svg3" serif:id="socket-io.svg" transform="matrix(0.0496,0,0,0.0496,0,540)">
        <g transform="matrix(1,0,0,1,-1250,-1250)">
            <g transform="matrix(2.71848,2.90026e-15,0,3.75627,-761.442,-5844.01)">
                <path d="M740.012,1564.77C987.238,1564.77 1187.95,1709.88 1187.95,1888.62C1187.95,2067.36 987.238,2212.47 740.012,2212.47C492.786,2212.47 292.07,2067.36 292.07,1888.62C292.07,1709.88 492.786,1564.77 740.012,1564.77ZM740.012,1613.35C950.154,1613.35 1120.76,1736.69 1120.76,1888.62C1120.76,2040.55 950.154,2163.89 740.012,2163.89C529.87,2163.89 359.261,2040.55 359.261,1888.62C359.261,1736.69 529.87,1613.35 740.012,1613.35Z" style="fill:rgb(1,1,1);"/>
            </g>
            <path d="M953.486,1188.38C1220.35,970.352 1481.4,744.766 1754.07,533.135C1611.05,752.91 1463.95,969.766 1320.93,1189.53C1198.25,1190.12 1075.59,1190.12 953.486,1188.37L953.486,1188.38ZM1179.07,1309.88C1302.32,1309.88 1425,1309.88 1547.68,1311.63C1279.07,1528.49 1019.19,1755.81 745.928,1966.87C888.955,1747.09 1036.05,1529.66 1179.07,1309.88Z" style="fill:rgb(1,1,1);fill-rule:nonzero;"/>
        </g>
    </g>
    <g id="noun_Upload_954031.svg" transform="matrix(1.19775,0.320936,-0.320936,1.19775,158.295,87.0925)">
        <g transform="matrix(1,0,0,1,-50,-50)">
            <clipPath id="_clip1">
                <rect x="0" y="0" width="100" height="100"/>
            </clipPath>
            <g clip-path="url(#_clip1)">
                <path d="M50,25L50,59.375" style="fill:none;fill-rule:nonzero;stroke:black;stroke-width:6.25px;"/>
                <path d="M39.063,34.375L50,21.875L60.938,34.375" style="fill:none;fill-rule:nonzero;stroke:black;stroke-width:6.25px;"/>
                <path d="M18.75,59.375L18.75,78.125L81.25,78.125L81.25,59.375" style="fill:none;fill-rule:nonzero;stroke:black;stroke-width:6.25px;"/>
            </g>
        </g>
    </g>
    <g id="noun_Download_954035.svg" transform="matrix(1.07387,0.62,-0.62,1.07387,455.306,343.03)">
        <g transform="matrix(1,0,0,1,-50,-50)">
            <clipPath id="_clip2">
                <rect x="0" y="0" width="100" height="100"/>
            </clipPath>
            <g clip-path="url(#_clip2)">
                <path d="M50,56.25L50,21.875" style="fill:none;fill-rule:nonzero;stroke:black;stroke-width:6.25px;"/>
                <path d="M39.063,46.875L50,59.375L60.938,46.875" style="fill:none;fill-rule:nonzero;stroke:black;stroke-width:6.25px;"/>
                <path d="M18.75,59.375L18.75,78.125L81.25,78.125L81.25,59.375" style="fill:none;fill-rule:nonzero;stroke:black;stroke-width:6.25px;"/>
            </g>
        </g>
    </g>
    <g id="noun_Smartphone_955852.svg" transform="matrix(1.07387,-0.62,0.62,1.07387,417.738,115.464)">
        <g transform="matrix(1,0,0,1,-50,-50)">
            <clipPath id="_clip3">
                <rect x="0" y="0" width="100" height="100"/>
            </clipPath>
            <g clip-path="url(#_clip3)">
                <rect x="18.75" y="6.25" width="62.5" height="87.5" style="fill:none;stroke:black;stroke-width:6.25px;"/>
                <circle cx="50" cy="78.906" r="5.469"/>
                <path d="M56.25,18.75L43.75,18.75" style="fill:none;fill-rule:nonzero;stroke:black;stroke-width:6.25px;"/>
            </g>
        </g>
    </g>
    <g id="noun_chat_954024.svg" transform="matrix(1.07387,0.62,-0.62,1.07387,84.6936,304.94)">
        <g transform="matrix(1,0,0,1,-50,-50)">
            <clipPath id="_clip4">
                <rect x="0" y="0" width="100" height="100"/>
            </clipPath>
            <g clip-path="url(#_clip4)">
                <path d="M9.375,9.375L9.375,65.625L31.25,65.625L31.25,90.625L57.813,65.625L90.625,65.625L90.625,9.375L9.375,9.375Z" style="fill:none;fill-rule:nonzero;stroke:black;stroke-width:6.25px;"/>
            </g>
        </g>
    </g>
    <g id="noun_Cloud_954033.svg" transform="matrix(1.23528,-0.108073,0.108073,1.23528,290.773,258.337)">
        <g transform="matrix(1,0,0,1,-50,-50)">
            <path d="M78.125,75C69.553,75 62.5,67.947 62.5,59.375" style="fill:none;fill-rule:nonzero;stroke:black;stroke-width:6.25px;stroke-linejoin:round;stroke-miterlimit:4;"/>
            <path d="M18.75,50C23.247,49.973 27.428,52.362 29.688,56.25" style="fill:none;fill-rule:nonzero;stroke:black;stroke-width:6.25px;stroke-linejoin:round;stroke-miterlimit:4;"/>
            <path d="M78.125,43.75C75.802,43.763 73.511,44.297 71.422,45.313C69.16,33.595 58.809,25.05 46.875,25.05C33.179,25.05 21.903,36.305 21.875,50L21.875,50.414C20.834,50.139 19.762,50 18.685,50C11.828,50 6.185,55.643 6.185,62.5C6.185,69.357 11.828,75 18.685,75C18.707,75 18.728,75 18.75,75L78.125,75C86.697,75 93.75,67.947 93.75,59.375C93.75,50.803 86.697,43.75 78.125,43.75Z" style="fill:none;fill-rule:nonzero;stroke:black;stroke-width:6.25px;stroke-linejoin:round;stroke-miterlimit:4;"/>
        </g>
    </g>
    <g id="noun_screen_957920.svg" transform="matrix(1.19775,-0.320936,0.320936,1.19775,270,465.568)">
        <g transform="matrix(1,0,0,1,-50,-50)">
            <clipPath id="_clip5">
                <rect x="0" y="0" width="100" height="100"/>
            </clipPath>
            <g clip-path="url(#_clip5)">
                <rect x="6.25" y="6.25" width="87.5" height="62.5" style="fill:none;stroke:black;stroke-width:6.25px;"/>
                <path d="M75,93.75L25,93.75" style="fill:none;fill-rule:nonzero;stroke:black;stroke-width:6.25px;"/>
                <path d="M40.625,91.406L40.625,69.531" style="fill:none;fill-rule:nonzero;stroke:black;stroke-width:6.25px;"/>
                <path d="M59.375,91.406L59.375,69.531" style="fill:none;fill-rule:nonzero;stroke:black;stroke-width:6.25px;"/>
            </g>
        </g>
    </g>
</svg>
