<?xml version="1.0" encoding="UTF-8" standalone="no"?>
<!DOCTYPE svg PUBLIC "-//W3C//DTD SVG 1.1//EN" "http://www.w3.org/Graphics/SVG/1.1/DTD/svg11.dtd">
<svg width="100%" height="100%" viewBox="0 0 2500 2500" version="1.1" xmlns="http://www.w3.org/2000/svg" xmlns:xlink="http://www.w3.org/1999/xlink" xml:space="preserve" xmlns:serif="http://www.serif.com/" style="fill-rule:evenodd;clip-rule:evenodd;stroke-linejoin:round;stroke-miterlimit:2;">
    <g transform="matrix(2.71848,2.90026e-15,0,3.75627,-761.442,-5844.01)">
        <path d="M740.012,1564.77C987.238,1564.77 1187.95,1709.88 1187.95,1888.62C1187.95,2067.36 987.238,2212.47 740.012,2212.47C492.786,2212.47 292.07,2067.36 292.07,1888.62C292.07,1709.88 492.786,1564.77 740.012,1564.77ZM740.012,1613.35C950.154,1613.35 1120.76,1736.69 1120.76,1888.62C1120.76,2040.55 950.154,2163.89 740.012,2163.89C529.87,2163.89 359.261,2040.55 359.261,1888.62C359.261,1736.69 529.87,1613.35 740.012,1613.35Z" style="fill:rgb(1,1,1);"/>
    </g>
    <path d="M953.486,1188.38C1220.35,970.352 1481.4,744.766 1754.07,533.135C1611.05,752.91 1463.95,969.766 1320.93,1189.53C1198.25,1190.12 1075.59,1190.12 953.486,1188.37L953.486,1188.38ZM1179.07,1309.88C1302.32,1309.88 1425,1309.88 1547.68,1311.63C1279.07,1528.49 1019.19,1755.81 745.928,1966.87C888.955,1747.09 1036.05,1529.66 1179.07,1309.88Z" style="fill:rgb(1,1,1);fill-rule:nonzero;"/>
</svg>
