<?xml version="1.0" encoding="UTF-8" standalone="no"?>
<!DOCTYPE svg PUBLIC "-//W3C//DTD SVG 1.1//EN" "http://www.w3.org/Graphics/SVG/1.1/DTD/svg11.dtd">
<svg width="100%" height="100%" viewBox="0 0 540 540" version="1.1" xmlns="http://www.w3.org/2000/svg" xmlns:xlink="http://www.w3.org/1999/xlink" xml:space="preserve" xmlns:serif="http://www.serif.com/" style="fill-rule:evenodd;clip-rule:evenodd;stroke-linejoin:round;stroke-miterlimit:2;">
    <g id="logo.svg" transform="matrix(0.0496,0,0,0.0496,0,0)">
        <g transform="matrix(1,0,0,1,-1250,-1250)">
            <g transform="matrix(2.71848,2.90026e-15,0,3.75627,-761.442,-5844.01)">
                <path d="M740.012,1564.77C987.238,1564.77 1187.95,1709.88 1187.95,1888.62C1187.95,2067.36 987.238,2212.47 740.012,2212.47C492.786,2212.47 292.07,2067.36 292.07,1888.62C292.07,1709.88 492.786,1564.77 740.012,1564.77ZM740.012,1613.35C950.154,1613.35 1120.76,1736.69 1120.76,1888.62C1120.76,2040.55 950.154,2163.89 740.012,2163.89C529.87,2163.89 359.261,2040.55 359.261,1888.62C359.261,1736.69 529.87,1613.35 740.012,1613.35Z" style="fill:rgb(1,1,1);"/>
            </g>
            <path d="M953.486,1188.38C1220.35,970.352 1481.4,744.766 1754.07,533.135C1611.05,752.91 1463.95,969.766 1320.93,1189.53C1198.25,1190.12 1075.59,1190.12 953.486,1188.37L953.486,1188.38ZM1179.07,1309.88C1302.32,1309.88 1425,1309.88 1547.68,1311.63C1279.07,1528.49 1019.19,1755.81 745.928,1966.87C888.955,1747.09 1036.05,1529.66 1179.07,1309.88Z" style="fill:rgb(1,1,1);fill-rule:nonzero;"/>
        </g>
    </g>
    <g id="logo.svg1" serif:id="logo.svg" transform="matrix(0.0496,0,0,0.0496,540,0)">
        <g transform="matrix(1,0,0,1,-1250,-1250)">
            <g transform="matrix(2.71848,2.90026e-15,0,3.75627,-761.442,-5844.01)">
                <path d="M740.012,1564.77C987.238,1564.77 1187.95,1709.88 1187.95,1888.62C1187.95,2067.36 987.238,2212.47 740.012,2212.47C492.786,2212.47 292.07,2067.36 292.07,1888.62C292.07,1709.88 492.786,1564.77 740.012,1564.77ZM740.012,1613.35C950.154,1613.35 1120.76,1736.69 1120.76,1888.62C1120.76,2040.55 950.154,2163.89 740.012,2163.89C529.87,2163.89 359.261,2040.55 359.261,1888.62C359.261,1736.69 529.87,1613.35 740.012,1613.35Z" style="fill:rgb(1,1,1);"/>
            </g>
            <path d="M953.486,1188.38C1220.35,970.352 1481.4,744.766 1754.07,533.135C1611.05,752.91 1463.95,969.766 1320.93,1189.53C1198.25,1190.12 1075.59,1190.12 953.486,1188.37L953.486,1188.38ZM1179.07,1309.88C1302.32,1309.88 1425,1309.88 1547.68,1311.63C1279.07,1528.49 1019.19,1755.81 745.928,1966.87C888.955,1747.09 1036.05,1529.66 1179.07,1309.88Z" style="fill:rgb(1,1,1);fill-rule:nonzero;"/>
        </g>
    </g>
    <g id="logo.svg2" serif:id="logo.svg" transform="matrix(0.0496,0,0,0.0496,540,540)">
        <g transform="matrix(1,0,0,1,-1250,-1250)">
            <g transform="matrix(2.71848,2.90026e-15,0,3.75627,-761.442,-5844.01)">
                <path d="M740.012,1564.77C987.238,1564.77 1187.95,1709.88 1187.95,1888.62C1187.95,2067.36 987.238,2212.47 740.012,2212.47C492.786,2212.47 292.07,2067.36 292.07,1888.62C292.07,1709.88 492.786,1564.77 740.012,1564.77ZM740.012,1613.35C950.154,1613.35 1120.76,1736.69 1120.76,1888.62C1120.76,2040.55 950.154,2163.89 740.012,2163.89C529.87,2163.89 359.261,2040.55 359.261,1888.62C359.261,1736.69 529.87,1613.35 740.012,1613.35Z" style="fill:rgb(1,1,1);"/>
            </g>
            <path d="M953.486,1188.38C1220.35,970.352 1481.4,744.766 1754.07,533.135C1611.05,752.91 1463.95,969.766 1320.93,1189.53C1198.25,1190.12 1075.59,1190.12 953.486,1188.37L953.486,1188.38ZM1179.07,1309.88C1302.32,1309.88 1425,1309.88 1547.68,1311.63C1279.07,1528.49 1019.19,1755.81 745.928,1966.87C888.955,1747.09 1036.05,1529.66 1179.07,1309.88Z" style="fill:rgb(1,1,1);fill-rule:nonzero;"/>
        </g>
    </g>
    <g id="logo.svg3" serif:id="logo.svg" transform="matrix(0.0496,0,0,0.0496,0,540)">
        <g transform="matrix(1,0,0,1,-1250,-1250)">
            <g transform="matrix(2.71848,2.90026e-15,0,3.75627,-761.442,-5844.01)">
                <path d="M740.012,1564.77C987.238,1564.77 1187.95,1709.88 1187.95,1888.62C1187.95,2067.36 987.238,2212.47 740.012,2212.47C492.786,2212.47 292.07,2067.36 292.07,1888.62C292.07,1709.88 492.786,1564.77 740.012,1564.77ZM740.012,1613.35C950.154,1613.35 1120.76,1736.69 1120.76,1888.62C1120.76,2040.55 950.154,2163.89 740.012,2163.89C529.87,2163.89 359.261,2040.55 359.261,1888.62C359.261,1736.69 529.87,1613.35 740.012,1613.35Z" style="fill:rgb(1,1,1);"/>
            </g>
            <path d="M953.486,1188.38C1220.35,970.352 1481.4,744.766 1754.07,533.135C1611.05,752.91 1463.95,969.766 1320.93,1189.53C1198.25,1190.12 1075.59,1190.12 953.486,1188.37L953.486,1188.38ZM1179.07,1309.88C1302.32,1309.88 1425,1309.88 1547.68,1311.63C1279.07,1528.49 1019.19,1755.81 745.928,1966.87C888.955,1747.09 1036.05,1529.66 1179.07,1309.88Z" style="fill:rgb(1,1,1);fill-rule:nonzero;"/>
        </g>
    </g>
    <g id="monitor.svg" transform="matrix(4.47446,2.58333,-2.58333,4.47446,185.306,434.345)">
        <g transform="matrix(1,0,0,1,-12,-12)">
            <path d="M21,16L3,16L3,4L21,4M21,2L3,2C1.89,2 1,2.89 1,4L1,16C1,17.097 1.903,18 3,18L10,18L10,20L8,20L8,22L16,22L16,20L14,20L14,18L21,18C22.097,18 23,17.097 23,16L23,4C23,2.89 22.1,2 21,2Z" style="fill-rule:nonzero;"/>
        </g>
    </g>
    <g id="cellphone.svg" transform="matrix(3.65339,-3.65339,3.65339,3.65339,445.611,128.536)">
        <g transform="matrix(1,0,0,1,-12,-12)">
            <path d="M17,19L7,19L7,5L17,5M17,1L7,1C5.89,1 5,1.89 5,3L5,21C5,22.097 5.903,23 7,23L17,23C18.097,23 19,22.097 19,21L19,3C19,1.89 18.1,1 17,1Z" style="fill-rule:nonzero;"/>
        </g>
    </g>
    <g id="message-outline.svg" transform="matrix(4.47446,2.58333,-2.58333,4.47446,105.189,224.45)">
        <g transform="matrix(1,0,0,1,-12,-12)">
            <path d="M20,2L4,2C2.9,2 2,2.9 2,4L2,22L6,18L20,18C21.1,18 22,17.1 22,16L22,4C22,2.9 21.1,2 20,2M20,16L5.2,16L4,17.2L4,4L20,4L20,16Z" style="fill-rule:nonzero;"/>
        </g>
    </g>
    <g id="handshake-outline.svg" transform="matrix(2.58333,4.47446,-4.47446,2.58333,230.285,76.8485)">
        <g transform="matrix(1,0,0,1,-12,-12)">
            <path d="M21.71,8.71C22.96,7.46 22.39,6 21.71,5.29L18.71,2.29C17.45,1.04 16,1.61 15.29,2.29L13.59,4L11,4C9.1,4 8,5 7.44,6.15L3,10.59L3,14.59L2.29,15.29C1.04,16.55 1.61,18 2.29,18.71L5.29,21.71C5.83,22.25 6.41,22.45 6.96,22.45C7.67,22.45 8.32,22.1 8.71,21.71L11.41,19L15,19C16.7,19 17.56,17.94 17.87,16.9C19,16.6 19.62,15.74 19.87,14.9C21.42,14.5 22,13.03 22,12L22,9L21.41,9L21.71,8.71M20,12C20,12.45 19.81,13 19,13L18,13L18,14C18,14.45 17.81,15 17,15L16,15L16,16C16,16.45 15.81,17 15,17L10.59,17L7.31,20.28C7,20.57 6.82,20.4 6.71,20.29L3.72,17.31C3.43,17 3.6,16.82 3.71,16.71L5,15.41L5,11.41L7,9.41L7,11C7,12.21 7.8,14 10,14C12.2,14 13,12.21 13,11L20,11L20,12M20.29,7.29L18.59,9L11,9L11,11C11,11.45 10.81,12 10,12C9.19,12 9,11.45 9,11L9,8C9,7.54 9.17,6 11,6L14.41,6L16.69,3.72C17,3.43 17.18,3.6 17.29,3.71L20.28,6.69C20.57,7 20.4,7.18 20.29,7.29Z" style="fill-rule:nonzero;"/>
        </g>
    </g>
    <g id="connection.svg" transform="matrix(4.47446,-2.58333,2.58333,4.47446,455.306,401.899)">
        <g transform="matrix(1,0,0,1,-12,-12)">
            <path d="M21.4,7.5C22.2,8.3 22.2,9.6 21.4,10.3L18.6,13.1L10.8,5.3L13.6,2.5C14.4,1.7 15.7,1.7 16.4,2.5L18.2,4.3L21.2,1.3L22.6,2.7L19.6,5.7L21.4,7.5M15.6,13.3L14.2,11.9L11.4,14.7L9.3,12.6L12.1,9.8L10.7,8.4L7.9,11.2L6.4,9.8L3.6,12.6C2.8,13.4 2.8,14.7 3.6,15.4L5.4,17.2L1.4,21.2L2.8,22.6L6.8,18.6L8.6,20.4C9.4,21.2 10.7,21.2 11.4,20.4L14.2,17.6L12.8,16.2L15.6,13.3Z" style="fill-rule:nonzero;"/>
        </g>
    </g>
    <g id="cloud-outline.svg" transform="matrix(4.99062,-1.33723,1.33723,4.99062,314.979,284.118)">
        <g transform="matrix(1,0,0,1,-12,-12)">
            <clipPath id="_clip1">
                <rect x="0" y="0" width="24" height="24"/>
            </clipPath>
            <g clip-path="url(#_clip1)">
                <path d="M19,18L6,18C3.806,18 2,16.194 2,14C2,11.806 3.806,10 6,10L6.71,10C7.37,7.69 9.5,6 12,6C15.017,6 17.5,8.483 17.5,11.5L17.5,12L19,12C20.646,12 22,13.354 22,15C22,16.646 20.646,18 19,18M19.35,10.03C18.67,6.59 15.64,4 12,4C9.11,4 6.6,5.64 5.35,8.03C2.34,8.36 0,10.9 0,14C0,17.292 2.708,20 6,20L19,20C21.743,20 24,17.743 24,15C24,12.36 21.95,10.22 19.35,10.03Z" style="fill-rule:nonzero;"/>
            </g>
        </g>
    </g>
</svg>
